<mxfile host="app.diagrams.net" agent="Mozilla/5.0 (Windows NT 10.0; Win64; x64) AppleWebKit/537.36 (KHTML, like Gecko) Chrome/138.0.0.0 Safari/537.36" version="28.0.5">
  <diagram name="第 1 页" id="xCCtBh1IH_aM3Ri0KuDi">
    <mxGraphModel dx="807" dy="417" grid="1" gridSize="10" guides="1" tooltips="1" connect="1" arrows="1" fold="1" page="1" pageScale="1" pageWidth="1169" pageHeight="827" math="0" shadow="0">
      <root>
        <mxCell id="0" />
        <mxCell id="1" parent="0" />
        <mxCell id="gAO9YN55WAYrPnItWNkm-152" value="" style="rounded=1;whiteSpace=wrap;html=1;fillColor=#f8cecc;strokeColor=#b85450;sketch=1;curveFitting=1;jiggle=2;opacity=30;" vertex="1" parent="1">
          <mxGeometry x="436" y="139.85" width="302.09" height="154.74" as="geometry" />
        </mxCell>
        <mxCell id="gAO9YN55WAYrPnItWNkm-146" value="" style="rounded=1;whiteSpace=wrap;html=1;fillColor=#ffe6cc;strokeColor=#d79b00;opacity=30;sketch=1;curveFitting=1;jiggle=2;" vertex="1" parent="1">
          <mxGeometry x="78" y="244.86" width="207" height="42.82" as="geometry" />
        </mxCell>
        <mxCell id="gAO9YN55WAYrPnItWNkm-26" value="" style="rounded=1;whiteSpace=wrap;html=1;fillColor=#fff2cc;strokeColor=#d6b656;sketch=1;curveFitting=1;jiggle=2;opacity=30;" vertex="1" parent="1">
          <mxGeometry x="44" y="141.26" width="350" height="154.74" as="geometry" />
        </mxCell>
        <mxCell id="gAO9YN55WAYrPnItWNkm-12" value="..." style="text;html=1;align=center;verticalAlign=middle;whiteSpace=wrap;rounded=0;rotation=0;fontFamily=Comic Sans MS;fontSize=12;fontColor=#D79B00;fontStyle=1" vertex="1" parent="1">
          <mxGeometry x="169.82999999999998" y="170" width="18.18" height="13.18" as="geometry" />
        </mxCell>
        <mxCell id="gAO9YN55WAYrPnItWNkm-13" value="Contriever&lt;div&gt;5&lt;/div&gt;" style="ellipse;whiteSpace=wrap;html=1;fillColor=#ffe6cc;strokeColor=#d79b00;sketch=1;curveFitting=1;jiggle=2;fontSize=10;fontFamily=Comic Sans MS;strokeWidth=1.5;fontStyle=1;opacity=70;fontColor=light-dark(#D79B00,#BFA761);" vertex="1" parent="1">
          <mxGeometry x="85.50999999999999" y="248.53" width="60" height="30" as="geometry" />
        </mxCell>
        <mxCell id="gAO9YN55WAYrPnItWNkm-19" value="Contriever&lt;div&gt;7&lt;/div&gt;" style="ellipse;whiteSpace=wrap;html=1;fillColor=#ffe6cc;strokeColor=#d79b00;sketch=1;curveFitting=1;jiggle=2;fontSize=10;fontFamily=Comic Sans MS;strokeWidth=1.5;fontStyle=1;opacity=70;fontColor=light-dark(#D79B00,#BFA761);" vertex="1" parent="1">
          <mxGeometry x="145.51" y="250" width="60" height="30" as="geometry" />
        </mxCell>
        <mxCell id="gAO9YN55WAYrPnItWNkm-20" value="Contriever&lt;div&gt;n&lt;/div&gt;" style="ellipse;whiteSpace=wrap;html=1;fillColor=#ffe6cc;strokeColor=#d79b00;sketch=1;curveFitting=1;jiggle=2;fontSize=10;fontFamily=Comic Sans MS;strokeWidth=1.5;fontStyle=1;opacity=70;fontColor=light-dark(#D79B00,#BFA761);" vertex="1" parent="1">
          <mxGeometry x="218" y="250" width="60" height="30" as="geometry" />
        </mxCell>
        <mxCell id="gAO9YN55WAYrPnItWNkm-27" value="Specialist Retriever Training&amp;nbsp;&lt;span style=&quot;background-color: transparent; color: light-dark(rgb(0, 0, 0), rgb(255, 255, 255));&quot;&gt;&amp;amp; Optimal Layer Identification&lt;/span&gt;" style="text;html=1;align=center;verticalAlign=middle;whiteSpace=wrap;rounded=0;fontFamily=Comic Sans MS;" vertex="1" parent="1">
          <mxGeometry x="47.1" y="144.91" width="341.5" height="20" as="geometry" />
        </mxCell>
        <mxCell id="gAO9YN55WAYrPnItWNkm-30" value="..." style="text;html=1;align=center;verticalAlign=middle;whiteSpace=wrap;rounded=0;rotation=0;fontFamily=Comic Sans MS;fontSize=13;fontColor=#D6B656;fontStyle=1;strokeColor=none;" vertex="1" parent="1">
          <mxGeometry x="203.82" y="256.94" width="18.18" height="13.18" as="geometry" />
        </mxCell>
        <mxCell id="gAO9YN55WAYrPnItWNkm-46" value="" style="endArrow=classic;html=1;rounded=0;fillColor=#ffe6cc;strokeColor=#d79b00;sketch=1;curveFitting=1;jiggle=2;strokeWidth=1.5;exitX=0.5;exitY=0;exitDx=0;exitDy=0;opacity=70;" edge="1" parent="1" source="gAO9YN55WAYrPnItWNkm-133">
          <mxGeometry width="50" height="50" relative="1" as="geometry">
            <mxPoint x="337.75000000000045" y="257.66499999999996" as="sourcePoint" />
            <mxPoint x="328.52" y="220" as="targetPoint" />
          </mxGeometry>
        </mxCell>
        <mxCell id="gAO9YN55WAYrPnItWNkm-48" value="&lt;b&gt;choosing best layer&lt;/b&gt;" style="text;html=1;align=center;verticalAlign=middle;whiteSpace=wrap;rounded=0;fontFamily=Comic Sans MS;fontSize=10;fontColor=#D79B00;opacity=70;textOpacity=80;" vertex="1" parent="1">
          <mxGeometry x="335.5999999999999" y="225.89000000000001" width="53" height="18.97" as="geometry" />
        </mxCell>
        <mxCell id="gAO9YN55WAYrPnItWNkm-49" value="" style="endArrow=classic;html=1;rounded=0;fillColor=#fff2cc;strokeColor=#D79B00;sketch=1;curveFitting=1;jiggle=2;strokeWidth=1.5;opacity=70;textOpacity=80;entryX=0.428;entryY=0.088;entryDx=0;entryDy=0;entryPerimeter=0;" edge="1" parent="1" target="gAO9YN55WAYrPnItWNkm-13">
          <mxGeometry width="50" height="50" relative="1" as="geometry">
            <mxPoint x="145.51" y="230" as="sourcePoint" />
            <mxPoint x="105.00999999999999" y="250" as="targetPoint" />
          </mxGeometry>
        </mxCell>
        <mxCell id="gAO9YN55WAYrPnItWNkm-59" value="" style="endArrow=classic;html=1;rounded=0;fillColor=#fff2cc;strokeColor=#D79B00;sketch=1;curveFitting=1;jiggle=2;strokeWidth=1.5;exitX=0;exitY=0;exitDx=40;exitDy=60;exitPerimeter=0;entryX=0.565;entryY=-0.008;entryDx=0;entryDy=0;entryPerimeter=0;opacity=70;textOpacity=80;" edge="1" parent="1" source="gAO9YN55WAYrPnItWNkm-6" target="gAO9YN55WAYrPnItWNkm-19">
          <mxGeometry width="50" height="50" relative="1" as="geometry">
            <mxPoint x="204.51" y="240" as="sourcePoint" />
            <mxPoint x="179.01" y="247" as="targetPoint" />
          </mxGeometry>
        </mxCell>
        <mxCell id="gAO9YN55WAYrPnItWNkm-60" value="" style="endArrow=classic;html=1;rounded=0;fillColor=#fff2cc;strokeColor=#D79B00;sketch=1;curveFitting=1;jiggle=2;strokeWidth=1.5;exitX=0;exitY=0;exitDx=40;exitDy=60;exitPerimeter=0;entryX=0.583;entryY=0;entryDx=0;entryDy=0;entryPerimeter=0;opacity=70;textOpacity=80;" edge="1" parent="1" source="gAO9YN55WAYrPnItWNkm-4" target="gAO9YN55WAYrPnItWNkm-20">
          <mxGeometry width="50" height="50" relative="1" as="geometry">
            <mxPoint x="194.01" y="240" as="sourcePoint" />
            <mxPoint x="194.01" y="257" as="targetPoint" />
          </mxGeometry>
        </mxCell>
        <mxCell id="gAO9YN55WAYrPnItWNkm-70" value="train" style="text;html=1;align=center;verticalAlign=middle;whiteSpace=wrap;rounded=0;fontFamily=Comic Sans MS;fontSize=10;fontColor=light-dark(#D79B00,#BFA761);fontStyle=1;opacity=70;textOpacity=80;" vertex="1" parent="1">
          <mxGeometry x="136.00999999999996" y="230" width="43.77" height="8.18" as="geometry" />
        </mxCell>
        <mxCell id="gAO9YN55WAYrPnItWNkm-93" value="training dataset" style="text;html=1;align=center;verticalAlign=middle;whiteSpace=wrap;rounded=0;fontSize=10;fontFamily=Comic Sans MS;fontColor=light-dark(#D79B00,#BFA761);fontStyle=1" vertex="1" parent="1">
          <mxGeometry x="50" y="210.02999999999997" width="40" height="14.39" as="geometry" />
        </mxCell>
        <mxCell id="gAO9YN55WAYrPnItWNkm-96" value="" style="endArrow=classic;html=1;rounded=0;fillColor=#f8cecc;strokeColor=#b85450;strokeWidth=3;sketch=1;curveFitting=1;jiggle=2;opacity=70;" edge="1" parent="1">
          <mxGeometry width="50" height="50" relative="1" as="geometry">
            <mxPoint x="485" y="215.90999999999997" as="sourcePoint" />
            <mxPoint x="665" y="215.90999999999997" as="targetPoint" />
          </mxGeometry>
        </mxCell>
        <mxCell id="gAO9YN55WAYrPnItWNkm-97" value="" style="shape=cube;whiteSpace=wrap;html=1;boundedLbl=1;backgroundOutline=1;darkOpacity=0.05;darkOpacity2=0.1;size=30;fillColor=#f8cecc;strokeColor=#b85450;sketch=1;curveFitting=1;jiggle=2;opacity=70;fontColor=light-dark(#c18883, #ededed);" vertex="1" parent="1">
          <mxGeometry x="589" y="178.90999999999997" width="50" height="60" as="geometry" />
        </mxCell>
        <mxCell id="gAO9YN55WAYrPnItWNkm-98" value="" style="shape=cube;whiteSpace=wrap;html=1;boundedLbl=1;backgroundOutline=1;darkOpacity=0.05;darkOpacity2=0.1;size=30;fillColor=#f8cecc;strokeColor=#b85450;sketch=1;curveFitting=1;jiggle=2;opacity=70;" vertex="1" parent="1">
          <mxGeometry x="534" y="178.90999999999997" width="50" height="60" as="geometry" />
        </mxCell>
        <mxCell id="gAO9YN55WAYrPnItWNkm-99" value="" style="shape=cube;whiteSpace=wrap;html=1;boundedLbl=1;backgroundOutline=1;darkOpacity=0.05;darkOpacity2=0.1;size=30;fillColor=#f8cecc;strokeColor=#b85450;sketch=1;curveFitting=1;jiggle=2;opacity=70;" vertex="1" parent="1">
          <mxGeometry x="498" y="178.90999999999997" width="50" height="60" as="geometry" />
        </mxCell>
        <mxCell id="gAO9YN55WAYrPnItWNkm-100" value="layer 5" style="text;html=1;align=center;verticalAlign=middle;whiteSpace=wrap;rounded=0;rotation=45;fontFamily=Comic Sans MS;fontSize=10;fontColor=#B85450;textOpacity=70;fontStyle=1" vertex="1" parent="1">
          <mxGeometry x="494" y="177.90999999999997" width="60" height="30" as="geometry" />
        </mxCell>
        <mxCell id="gAO9YN55WAYrPnItWNkm-101" value="layer 7" style="text;html=1;align=center;verticalAlign=middle;whiteSpace=wrap;rounded=0;rotation=45;fontFamily=Comic Sans MS;fontSize=10;fontColor=#B85450;textOpacity=70;fontStyle=1" vertex="1" parent="1">
          <mxGeometry x="530.9998051533946" y="177.9098051533947" width="60" height="30" as="geometry" />
        </mxCell>
        <mxCell id="gAO9YN55WAYrPnItWNkm-102" value="layer n" style="text;html=1;align=center;verticalAlign=middle;whiteSpace=wrap;rounded=0;rotation=45;fontFamily=Comic Sans MS;fontSize=10;fontColor=light-dark(#c18883, #d7817e);fontStyle=1" vertex="1" parent="1">
          <mxGeometry x="583.9998051533946" y="177.9098051533947" width="60" height="30" as="geometry" />
        </mxCell>
        <mxCell id="gAO9YN55WAYrPnItWNkm-103" value="dataset with optimal layer" style="text;html=1;align=center;verticalAlign=middle;whiteSpace=wrap;rounded=0;fontSize=10;fontFamily=Comic Sans MS;fontColor=#B85450;textOpacity=70;fontStyle=1" vertex="1" parent="1">
          <mxGeometry x="433" y="231.49" width="70" height="30" as="geometry" />
        </mxCell>
        <mxCell id="gAO9YN55WAYrPnItWNkm-104" value="&lt;span style=&quot;color: rgb(184, 84, 80); font-family: &amp;quot;Comic Sans MS&amp;quot;; font-size: 10px; font-weight: 700;&quot;&gt;layer selection&lt;/span&gt;&lt;div style=&quot;color: rgb(184, 84, 80); font-family: &amp;quot;Comic Sans MS&amp;quot;; font-size: 10px; font-weight: 700;&quot;&gt;module&amp;nbsp;&lt;/div&gt;" style="rounded=1;whiteSpace=wrap;html=1;fillColor=#f8cecc;strokeColor=#b85450;sketch=1;curveFitting=1;jiggle=2;opacity=70;strokeWidth=1.5;textOpacity=70;" vertex="1" parent="1">
          <mxGeometry x="543.5" y="254.23000000000002" width="74" height="30" as="geometry" />
        </mxCell>
        <mxCell id="gAO9YN55WAYrPnItWNkm-105" value="" style="endArrow=classic;html=1;rounded=0;fillColor=#f8cecc;strokeColor=#b85450;sketch=1;curveFitting=1;jiggle=2;strokeWidth=1.5;opacity=70;exitX=0;exitY=0;exitDx=40;exitDy=60;exitPerimeter=0;entryX=0.289;entryY=-0.005;entryDx=0;entryDy=0;entryPerimeter=0;" edge="1" parent="1" source="gAO9YN55WAYrPnItWNkm-99" target="gAO9YN55WAYrPnItWNkm-104">
          <mxGeometry width="50" height="50" relative="1" as="geometry">
            <mxPoint x="513" y="315.0900000000001" as="sourcePoint" />
            <mxPoint x="493" y="335.0900000000001" as="targetPoint" />
          </mxGeometry>
        </mxCell>
        <mxCell id="gAO9YN55WAYrPnItWNkm-106" value="" style="endArrow=classic;html=1;rounded=0;fillColor=#f8cecc;strokeColor=#b85450;sketch=1;curveFitting=1;jiggle=2;strokeWidth=1.5;opacity=70;exitX=0;exitY=0;exitDx=40;exitDy=60;exitPerimeter=0;entryX=0.532;entryY=0.019;entryDx=0;entryDy=0;entryPerimeter=0;" edge="1" parent="1" source="gAO9YN55WAYrPnItWNkm-98" target="gAO9YN55WAYrPnItWNkm-104">
          <mxGeometry width="50" height="50" relative="1" as="geometry">
            <mxPoint x="503" y="235.09000000000003" as="sourcePoint" />
            <mxPoint x="519" y="250.09000000000003" as="targetPoint" />
          </mxGeometry>
        </mxCell>
        <mxCell id="gAO9YN55WAYrPnItWNkm-107" value="" style="endArrow=classic;html=1;rounded=0;fillColor=#f8cecc;strokeColor=#b85450;sketch=1;curveFitting=1;jiggle=2;strokeWidth=1.5;opacity=70;exitX=0;exitY=0;exitDx=40;exitDy=60;exitPerimeter=0;entryX=0.683;entryY=-0.043;entryDx=0;entryDy=0;entryPerimeter=0;" edge="1" parent="1" source="gAO9YN55WAYrPnItWNkm-97" target="gAO9YN55WAYrPnItWNkm-104">
          <mxGeometry width="50" height="50" relative="1" as="geometry">
            <mxPoint x="563" y="245.09000000000003" as="sourcePoint" />
            <mxPoint x="579" y="260.09000000000003" as="targetPoint" />
          </mxGeometry>
        </mxCell>
        <mxCell id="gAO9YN55WAYrPnItWNkm-108" value="..." style="text;html=1;align=center;verticalAlign=middle;whiteSpace=wrap;rounded=0;rotation=0;fontFamily=Comic Sans MS;fontSize=11;fontColor=#B85450;textOpacity=70;fontStyle=1" vertex="1" parent="1">
          <mxGeometry x="565.8199999999999" y="178.26999999999998" width="18.18" height="10" as="geometry" />
        </mxCell>
        <mxCell id="gAO9YN55WAYrPnItWNkm-109" value="" style="shape=image;verticalLabelPosition=bottom;labelBackgroundColor=default;verticalAlign=top;aspect=fixed;imageAspect=0;editableCssRules=.*;image=data:image/svg+xml,PHN2ZyB4bWxuczp4bGluaz0iaHR0cDovL3d3dy53My5vcmcvMTk5OS94bGluayIgeG1sbnM9Imh0dHA6Ly93d3cudzMub3JnLzIwMDAvc3ZnIiBoZWlnaHQ9IjExNi42NjY2NjI2OTMwMjM2OCIgd2lkdGg9IjEwMCIgdmVyc2lvbj0iMS4xIiB2aWV3Qm94PSIyNzcuMzMzMzEyOTg4MjgxMjUgMjM0LjY2NjY3MTc1MjkyOTcgNTEyIDU5Ny4zMzMzMTI5ODgyODEyIiBjbGFzcz0iaWNvbiI+PHBhdGggZmlsbD0iI0MxODg4MyIgZD0iTTc4OS4zMzMzMzMgNTk1LjEzNmMwLTEuODc3MzMzLTAuMDY0LTMuODQtMC4yNTYtNS43NlYzNDguNDE2aC0wLjI1NnYtMC41OTczMzNjMC0xMy4yMjY2NjctNC41NjUzMzMtMzMuMTA5MzMzLTI2LjE1NDY2Ni01Mi42OTMzMzQtMTMuODQ1MzMzLTEyLjU4NjY2Ny0zMy4wNjY2NjctMjMuNjE2LTU3LjE1Mi0zMi44NTMzMzNDNjU5LjA5MzMzMyAyNDQuNTIyNjY3IDU5Ny44NDUzMzMgMjM0LjY2NjY2NyA1MzMuMDc3MzMzIDIzNC42NjY2NjdjLTY0Ljc2OCAwLTEyNi4wMTYgOS44MTMzMzMtMTcyLjQ1ODY2NiAyNy42MjY2NjYtMjQgOS4yMTYtNDMuMjQyNjY3IDIwLjI2NjY2Ny01Ny4xMzA2NjcgMzIuODMyLTIxLjY1MzMzMyAxOS41ODQtMjYuMTU0NjY3IDM5LjQ2NjY2Ny0yNi4xNTQ2NjcgNTIuNjkzMzM0IDAgMS45NDEzMzMgMC4wNjQgMy44MTg2NjcgMC4yNTYgNS43NnYxMTQuODhjLTAuMDY0IDAuOTM4NjY3LTAuMDY0IDEuODc3MzMzLTAuMDY0IDIuODE2IDAgMC45Mzg2NjcgMCAxLjkyIDAuMDY0IDIuODE2djI0NS4wMTMzMzNjMC4wNjQgMTMuMjQ4IDQuNjkzMzMzIDMyLjk4MTMzMyAyNi4xNTQ2NjcgNTIuNDM3MzMzIDEzLjgyNCAxMi41ODY2NjcgMzMuMDY2NjY3IDIzLjYxNiA1Ny4xMzA2NjcgMzIuODUzMzM0QzQwNy4zMTczMzMgODIyLjE0NCA0NjguNTY1MzMzIDgzMiA1MzMuMzMzMzMzIDgzMmM2NC43NjggMCAxMjYuMDE2LTkuODEzMzMzIDE3Mi40NTg2NjctMjcuNjI2NjY3IDI0LTkuMjE2IDQzLjI0MjY2Ny0yMC4yNjY2NjcgNTcuMTMwNjY3LTMyLjgzMiAyMS40NjEzMzMtMTkuNDU2IDI2LjA5MDY2Ny0zOS4xODkzMzMgMjYuMTU0NjY2LTUyLjQzNzMzM3YtMTE4LjIyOTMzM2MwLjE5Mi0xLjkyIDAuMjU2LTMuODgyNjY3IDAuMjU2LTUuNzZ6IG0tNDY0Ljc2OC0xNzkuMDkzMzMzYzkuMTMwNjY3IDUuNTQ2NjY3IDE5Ljk0NjY2NyAxMC45NjUzMzMgMzIuNzg5MzM0IDE2LjA0MjY2NiA0Ni44MjY2NjcgMTguNTgxMzMzIDEwOS4xODQgMjguODg1MzMzIDE3NS43MjI2NjYgMjguODg1MzM0IDY2LjUxNzMzMyAwIDEyOS4wMDI2NjctMTAuMzA0IDE3NS44MjkzMzQtMjguOTQ5MzM0YTIxMy40NCAyMTMuNDQgMCAwIDAgMzMuMTk0NjY2LTE2LjM4NHY1NS42MzczMzRjMCA5LjY4NTMzMy0xNS41MDkzMzMgMjUuNjg1MzMzLTUwLjEzMzMzMyAzOS40NjY2NjYtNDEuMDQ1MzMzIDE2LjQyNjY2Ny05OC45NjUzMzMgMjUuODEzMzMzLTE1OC44OTA2NjcgMjUuODEzMzM0LTU5Ljg4MjY2NyAwLTExNy43Mzg2NjctOS4zODY2NjctMTU4LjYzNDY2Ni0yNS43NDkzMzQtMzMuMDY2NjY3LTEzLjI0OC00OC43MDQtMjguNjI5MzMzLTQ5LjgxMzMzNC0zOC4zMzZ2LTU2LjQyNjY2NmgtMC4wNjR6IG0xMC4wMjY2NjctODQuODY0YzkuMzg2NjY3LTguNTEyIDI0LjA2NC0xNi43MjUzMzMgNDIuNDUzMzMzLTIzLjgwOCA0MS4zMDEzMzMtMTUuODUwNjY3IDk2Ljc0NjY2Ny0yNC41MzMzMzMgMTU2LjAzMi0yNC41MzMzMzRzMTE0LjczMDY2NyA4LjY4MjY2NyAxNTYuMDEwNjY3IDI0LjUzMzMzNGMxOC4zODkzMzMgNy4wMTg2NjcgMzMuMDY2NjY3IDE1LjIzMiA0Mi40NTMzMzMgMjMuODA4IDMuNzk3MzMzIDMuNDc3MzMzIDEwLjE3NiAxMC4xNTQ2NjcgMTAuMzA0IDE2LjQyNjY2NnYwLjM0MTMzNGMtMC4xMjggOS42NDI2NjctMTUuNjM3MzMzIDI1LjQ5MzMzMy00OS44OTg2NjYgMzkuMTI1MzMzLTQxLjAyNCAxNi4zODQtOTguOTQ0IDI1Ljc0OTMzMy0xNTguODY5MzM0IDI1Ljc0OTMzMy01OS45NDY2NjcgMC0xMTcuODAyNjY3LTkuMzY1MzMzLTE1OC43NjI2NjYtMjUuNi0zMy43MDY2NjctMTMuMzc2LTQ3Ljc0NC0yOC4wMzItNDkuNzQ5MzM0LTM2Ljk5MnYtMS44MTMzMzNIMzI0LjI2NjY2N3YtMC41OTczMzNjMC02LjI5MzMzMyA2LjQ2NC0xMy4wOTg2NjcgMTAuMzA0LTE2LjY0eiBtLTEwLjAyNjY2NyAyMDguMjk4NjY2YzkuNTc4NjY3IDUuODI0IDIwLjU0NCAxMS4yNDI2NjcgMzIuNzg5MzM0IDE2LjE5MiA0Ni44MjY2NjcgMTguNzMwNjY3IDEwOS4yNDggMjkuMDEzMzMzIDE3NS43MjI2NjYgMjkuMDEzMzM0IDY2LjUxNzMzMyAwIDEyOC45Mzg2NjctMTAuMjgyNjY3IDE3NS44OTMzMzQtMjkuMDEzMzM0IDEyLjM5NDY2Ny00Ljk0OTMzMyAyMy40ODgtMTAuNDMyIDMzLjEzMDY2Ni0xNi4zMnY1OC4xMTJjLTIuMDA1MzMzIDguOTYtMTYuMTcwNjY3IDIzLjYxNi01MC4wOTA2NjYgMzcuMDU2LTQxLjA4OCAxNi4yNTYtOTguOTg2NjY3IDI1LjYtMTU4LjkzMzMzNCAyNS42LTU5LjczMzMzMyAwLTExNy40NjEzMzMtOS4zNDQtMTU4LjI5MzMzMy0yNS42LTM0LjY0NTMzMy0xMy43ODEzMzMtNTAuMTU0NjY3LTI5LjgyNC01MC4xNTQ2NjctMzkuNTk0NjY2di01NS40NDUzMzRoLTAuMDY0eiBtNDA3LjI1MzMzNCAxOTUuOTQ2NjY3Yy05LjM4NjY2NyA4LjQ5MDY2Ny0yNC4wODUzMzMgMTYuNzI1MzMzLTQyLjQ1MzMzNCAyMy44MDgtNDEuMzAxMzMzIDE1Ljg1MDY2Ny05Ni43NDY2NjcgMjQuNTMzMzMzLTE1Ni4wMzIgMjQuNTMzMzMzLTU5LjMwNjY2NyAwLTExNC43MzA2NjctOC42ODI2NjctMTU2LjAxMDY2Ni0yNC41MzMzMzMtMTguMzg5MzMzLTcuMDE4NjY3LTMzLjA2NjY2Ny0xNS4yMzItNDIuNDUzMzM0LTIzLjgwOC0zLjg0LTMuNDc3MzMzLTEwLjMwNC0xMC4yODI2NjctMTAuMzA0LTE2LjY0di01NS43MDEzMzNjOS42NDI2NjcgNS44NjY2NjcgMjAuNzM2IDExLjM0OTMzMyAzMy4xMzA2NjcgMTYuMjk4NjY2IDQ2Ljc2MjY2NyAxOC42NjY2NjcgMTA5LjAzNDY2NyAyOC45MDY2NjcgMTc1LjMxNzMzMyAyOC45MDY2NjcgNjYuNDUzMzMzIDAgMTI4LjkzODY2Ny0xMC4yNCAxNzUuODkzMzM0LTI4LjgyMTMzM2EyMjcuOTQ2NjY3IDIyNy45NDY2NjcgMCAwIDAgMzMuMTk0NjY2LTE2LjIxMzMzNHY1NS41OTQ2NjdjMCA2LjI5MzMzMy02LjQ0MjY2NyAxMy4wOTg2NjctMTAuMzA0IDE2LjU3NnoiLz48cGF0aCBmaWxsPSIjQzE4ODgzIiBkPSJNNzEyLjQ2OTMzMyA0NzYuOGMxLjEwOTMzMyA3LjAxODY2NyA1Ljg2NjY2NyAxMi44ODUzMzMgMTIuNDM3MzM0IDE1LjQyNGExOS41MiAxOS41MiAwIDAgMCAxOS40MzQ2NjYtMy4yIDIwLjAzMiAyMC4wMzIgMCAwIDAgNi45OTczMzQtMTguNjAyNjY3IDE5LjcxMiAxOS43MTIgMCAwIDAtMjIuNTkyLTE2LjQ2OTMzMyAxOS44ODI2NjcgMTkuODgyNjY3IDAgMCAwLTE2LjI3NzMzNCAyMi44MjY2Njd6TTcxMi4yMTMzMzMgNTkzLjA2NjY2N2MwIDEwLjk4NjY2NyA4LjgxMDY2NyAxOS45MDQgMTkuNjkwNjY3IDE5LjkwNHMxOS42OTA2NjctOC45MTczMzMgMTkuNjkwNjY3LTE5LjkwNGExOS43OTczMzMgMTkuNzk3MzMzIDAgMCAwLTE5LjY5MDY2Ny0xOS45MDQgMTkuNzk3MzMzIDE5Ljc5NzMzMyAwIDAgMC0xOS42OTA2NjcgMTkuOTA0ek03MTIuMjEzMzMzIDcxMi41MzMzMzNjMCAxMC45ODY2NjcgOC44MTA2NjcgMTkuOTA0IDE5LjY5MDY2NyAxOS45MDRzMTkuNjkwNjY3LTguOTE3MzMzIDE5LjY5MDY2Ny0xOS45MDRhMTkuNzk3MzMzIDE5Ljc5NzMzMyAwIDAgMC0xOS42OTA2NjctMTkuOTA0IDE5Ljc5NzMzMyAxOS43OTczMzMgMCAwIDAtMTkuNjkwNjY3IDE5LjkwNHoiLz48L3N2Zz4=;" vertex="1" parent="1">
          <mxGeometry x="454.77" y="202.70000000000005" width="26.47" height="30.97" as="geometry" />
        </mxCell>
        <mxCell id="gAO9YN55WAYrPnItWNkm-110" value="Layer Selector &amp;amp; Universal Retriever Training" style="text;html=1;align=center;verticalAlign=middle;whiteSpace=wrap;rounded=0;fontFamily=Comic Sans MS;" vertex="1" parent="1">
          <mxGeometry x="447.04" y="139.03000000000003" width="280" height="30" as="geometry" />
        </mxCell>
        <mxCell id="gAO9YN55WAYrPnItWNkm-112" value="&lt;font face=&quot;Comic Sans MS&quot; color=&quot;#b85450&quot;&gt;&lt;span style=&quot;font-size: 10px;&quot;&gt;&lt;b&gt;specific layer hidden state&lt;/b&gt;&lt;/span&gt;&lt;/font&gt;" style="rounded=1;whiteSpace=wrap;html=1;fillColor=#f8cecc;strokeColor=#b85450;sketch=1;curveFitting=1;jiggle=2;opacity=70;strokeWidth=1.5;textOpacity=70;" vertex="1" parent="1">
          <mxGeometry x="658.0900000000001" y="254.23000000000002" width="74" height="30" as="geometry" />
        </mxCell>
        <mxCell id="gAO9YN55WAYrPnItWNkm-114" value="" style="endArrow=classic;html=1;rounded=0;fillColor=#f8cecc;strokeColor=#b85450;sketch=1;curveFitting=1;jiggle=2;strokeWidth=1.5;opacity=70;exitX=1;exitY=0.5;exitDx=0;exitDy=0;entryX=0;entryY=0.5;entryDx=0;entryDy=0;" edge="1" parent="1" source="gAO9YN55WAYrPnItWNkm-104" target="gAO9YN55WAYrPnItWNkm-112">
          <mxGeometry width="50" height="50" relative="1" as="geometry">
            <mxPoint x="640.09" y="240.09000000000003" as="sourcePoint" />
            <mxPoint x="605.09" y="254.09000000000003" as="targetPoint" />
          </mxGeometry>
        </mxCell>
        <mxCell id="gAO9YN55WAYrPnItWNkm-115" value="Retriever&amp;nbsp;" style="ellipse;whiteSpace=wrap;html=1;fillColor=#f8cecc;strokeColor=#b85450;sketch=1;curveFitting=1;jiggle=2;fontSize=10;fontFamily=Comic Sans MS;strokeWidth=1.5;fontStyle=1;opacity=80;fontColor=#B85450;textOpacity=70;" vertex="1" parent="1">
          <mxGeometry x="665.0900000000001" y="193.90999999999997" width="60" height="30" as="geometry" />
        </mxCell>
        <mxCell id="gAO9YN55WAYrPnItWNkm-116" value="" style="endArrow=classic;html=1;rounded=0;fillColor=#f8cecc;strokeColor=#b85450;sketch=1;curveFitting=1;jiggle=2;strokeWidth=1.5;opacity=70;exitX=0.472;exitY=0;exitDx=0;exitDy=0;exitPerimeter=0;entryX=0.45;entryY=1.009;entryDx=0;entryDy=0;entryPerimeter=0;" edge="1" parent="1" source="gAO9YN55WAYrPnItWNkm-112" target="gAO9YN55WAYrPnItWNkm-115">
          <mxGeometry width="50" height="50" relative="1" as="geometry">
            <mxPoint x="645.09" y="260.09000000000003" as="sourcePoint" />
            <mxPoint x="755.28" y="271.27000000000015" as="targetPoint" />
          </mxGeometry>
        </mxCell>
        <mxCell id="gAO9YN55WAYrPnItWNkm-117" value="infer" style="text;html=1;align=center;verticalAlign=middle;whiteSpace=wrap;rounded=0;fontSize=10;fontFamily=Comic Sans MS;fontColor=#B85450;textOpacity=70;fontStyle=1" vertex="1" parent="1">
          <mxGeometry x="621.09" y="252.23000000000002" width="32" height="15.24" as="geometry" />
        </mxCell>
        <mxCell id="gAO9YN55WAYrPnItWNkm-118" value="train" style="text;html=1;align=center;verticalAlign=middle;whiteSpace=wrap;rounded=0;fontSize=10;fontFamily=Comic Sans MS;fontColor=#B85450;textOpacity=70;fontStyle=1" vertex="1" parent="1">
          <mxGeometry x="693.0900000000001" y="231.49" width="32" height="15.24" as="geometry" />
        </mxCell>
        <mxCell id="gAO9YN55WAYrPnItWNkm-130" value="train" style="text;html=1;align=center;verticalAlign=middle;whiteSpace=wrap;rounded=0;fontSize=10;fontFamily=Comic Sans MS;fontColor=#B85450;textOpacity=70;fontStyle=1" vertex="1" parent="1">
          <mxGeometry x="516" y="242.73000000000002" width="32" height="15.24" as="geometry" />
        </mxCell>
        <mxCell id="gAO9YN55WAYrPnItWNkm-5" value="" style="endArrow=classic;html=1;rounded=0;fillColor=#fff2cc;strokeColor=#D79B00;strokeWidth=3;sketch=1;curveFitting=1;jiggle=2;opacity=80;" edge="1" parent="1">
          <mxGeometry width="50" height="50" relative="1" as="geometry">
            <mxPoint x="90.00999999999999" y="207" as="sourcePoint" />
            <mxPoint x="270.01" y="207" as="targetPoint" />
          </mxGeometry>
        </mxCell>
        <mxCell id="gAO9YN55WAYrPnItWNkm-4" value="" style="shape=cube;whiteSpace=wrap;html=1;boundedLbl=1;backgroundOutline=1;darkOpacity=0.05;darkOpacity2=0.1;size=30;fillColor=#ffe6cc;strokeColor=#d79b00;sketch=1;curveFitting=1;jiggle=2;opacity=70;" vertex="1" parent="1">
          <mxGeometry x="189.01" y="170" width="50" height="60" as="geometry" />
        </mxCell>
        <mxCell id="gAO9YN55WAYrPnItWNkm-6" value="" style="shape=cube;whiteSpace=wrap;html=1;boundedLbl=1;backgroundOutline=1;darkOpacity=0.05;darkOpacity2=0.1;size=30;fillColor=#ffe6cc;strokeColor=#d79b00;sketch=1;curveFitting=1;jiggle=2;opacity=70;" vertex="1" parent="1">
          <mxGeometry x="139.01" y="170" width="50" height="60" as="geometry" />
        </mxCell>
        <mxCell id="gAO9YN55WAYrPnItWNkm-7" value="" style="shape=cube;whiteSpace=wrap;html=1;boundedLbl=1;backgroundOutline=1;darkOpacity=0.05;darkOpacity2=0.1;size=30;fillColor=#ffe6cc;strokeColor=#d79b00;sketch=1;curveFitting=1;jiggle=2;opacity=70;" vertex="1" parent="1">
          <mxGeometry x="104.00999999999999" y="170" width="50" height="60" as="geometry" />
        </mxCell>
        <mxCell id="gAO9YN55WAYrPnItWNkm-9" value="layer 5" style="text;html=1;align=center;verticalAlign=middle;whiteSpace=wrap;rounded=0;rotation=45;fontFamily=Comic Sans MS;fontSize=10;fontColor=#D79B00;fontStyle=1" vertex="1" parent="1">
          <mxGeometry x="100.00999999999999" y="170" width="60" height="30" as="geometry" />
        </mxCell>
        <mxCell id="gAO9YN55WAYrPnItWNkm-10" value="layer 7" style="text;html=1;align=center;verticalAlign=middle;whiteSpace=wrap;rounded=0;rotation=45;fontFamily=Comic Sans MS;fontSize=10;fontColor=#D79B00;fontStyle=1" vertex="1" parent="1">
          <mxGeometry x="136.00980515339464" y="169.99980515339465" width="60" height="30" as="geometry" />
        </mxCell>
        <mxCell id="gAO9YN55WAYrPnItWNkm-11" value="layer n" style="text;html=1;align=center;verticalAlign=middle;whiteSpace=wrap;rounded=0;rotation=45;fontFamily=Comic Sans MS;fontSize=10;fontColor=#D79B00;fontStyle=1" vertex="1" parent="1">
          <mxGeometry x="184.00980515339464" y="169.99980515339465" width="60" height="30" as="geometry" />
        </mxCell>
        <mxCell id="gAO9YN55WAYrPnItWNkm-131" value="dev dataset with&lt;div&gt;optimal layer&lt;/div&gt;" style="text;html=1;align=center;verticalAlign=middle;whiteSpace=wrap;rounded=0;fontSize=10;fontFamily=Comic Sans MS;fontColor=#D79B00;fontStyle=1;" vertex="1" parent="1">
          <mxGeometry x="277" y="200" width="105.02" height="15.58" as="geometry" />
        </mxCell>
        <mxCell id="gAO9YN55WAYrPnItWNkm-132" value="" style="shape=image;verticalLabelPosition=bottom;labelBackgroundColor=default;verticalAlign=top;aspect=fixed;imageAspect=0;editableCssRules=.*;image=data:image/svg+xml,PHN2ZyB4bWxuczp4bGluaz0iaHR0cDovL3d3dy53My5vcmcvMTk5OS94bGluayIgeG1sbnM9Imh0dHA6Ly93d3cudzMub3JnLzIwMDAvc3ZnIiBoZWlnaHQ9IjExNi42NjY2NjI2OTMwMjM2OCIgd2lkdGg9IjEwMCIgdmVyc2lvbj0iMS4xIiB2aWV3Qm94PSIyNzcuMzMzMzEyOTg4MjgxMjUgMjM0LjY2NjY3MTc1MjkyOTcgNTEyIDU5Ny4zMzMzMTI5ODgyODEyIiBjbGFzcz0iaWNvbiI+PHBhdGggZmlsbD0iI0Q3OUIwMCIgZD0iTTc4OS4zMzMzMzMgNTk1LjEzNmMwLTEuODc3MzMzLTAuMDY0LTMuODQtMC4yNTYtNS43NlYzNDguNDE2aC0wLjI1NnYtMC41OTczMzNjMC0xMy4yMjY2NjctNC41NjUzMzMtMzMuMTA5MzMzLTI2LjE1NDY2Ni01Mi42OTMzMzQtMTMuODQ1MzMzLTEyLjU4NjY2Ny0zMy4wNjY2NjctMjMuNjE2LTU3LjE1Mi0zMi44NTMzMzNDNjU5LjA5MzMzMyAyNDQuNTIyNjY3IDU5Ny44NDUzMzMgMjM0LjY2NjY2NyA1MzMuMDc3MzMzIDIzNC42NjY2NjdjLTY0Ljc2OCAwLTEyNi4wMTYgOS44MTMzMzMtMTcyLjQ1ODY2NiAyNy42MjY2NjYtMjQgOS4yMTYtNDMuMjQyNjY3IDIwLjI2NjY2Ny01Ny4xMzA2NjcgMzIuODMyLTIxLjY1MzMzMyAxOS41ODQtMjYuMTU0NjY3IDM5LjQ2NjY2Ny0yNi4xNTQ2NjcgNTIuNjkzMzM0IDAgMS45NDEzMzMgMC4wNjQgMy44MTg2NjcgMC4yNTYgNS43NnYxMTQuODhjLTAuMDY0IDAuOTM4NjY3LTAuMDY0IDEuODc3MzMzLTAuMDY0IDIuODE2IDAgMC45Mzg2NjcgMCAxLjkyIDAuMDY0IDIuODE2djI0NS4wMTMzMzNjMC4wNjQgMTMuMjQ4IDQuNjkzMzMzIDMyLjk4MTMzMyAyNi4xNTQ2NjcgNTIuNDM3MzMzIDEzLjgyNCAxMi41ODY2NjcgMzMuMDY2NjY3IDIzLjYxNiA1Ny4xMzA2NjcgMzIuODUzMzM0QzQwNy4zMTczMzMgODIyLjE0NCA0NjguNTY1MzMzIDgzMiA1MzMuMzMzMzMzIDgzMmM2NC43NjggMCAxMjYuMDE2LTkuODEzMzMzIDE3Mi40NTg2NjctMjcuNjI2NjY3IDI0LTkuMjE2IDQzLjI0MjY2Ny0yMC4yNjY2NjcgNTcuMTMwNjY3LTMyLjgzMiAyMS40NjEzMzMtMTkuNDU2IDI2LjA5MDY2Ny0zOS4xODkzMzMgMjYuMTU0NjY2LTUyLjQzNzMzM3YtMTE4LjIyOTMzM2MwLjE5Mi0xLjkyIDAuMjU2LTMuODgyNjY3IDAuMjU2LTUuNzZ6IG0tNDY0Ljc2OC0xNzkuMDkzMzMzYzkuMTMwNjY3IDUuNTQ2NjY3IDE5Ljk0NjY2NyAxMC45NjUzMzMgMzIuNzg5MzM0IDE2LjA0MjY2NiA0Ni44MjY2NjcgMTguNTgxMzMzIDEwOS4xODQgMjguODg1MzMzIDE3NS43MjI2NjYgMjguODg1MzM0IDY2LjUxNzMzMyAwIDEyOS4wMDI2NjctMTAuMzA0IDE3NS44MjkzMzQtMjguOTQ5MzM0YTIxMy40NCAyMTMuNDQgMCAwIDAgMzMuMTk0NjY2LTE2LjM4NHY1NS42MzczMzRjMCA5LjY4NTMzMy0xNS41MDkzMzMgMjUuNjg1MzMzLTUwLjEzMzMzMyAzOS40NjY2NjYtNDEuMDQ1MzMzIDE2LjQyNjY2Ny05OC45NjUzMzMgMjUuODEzMzMzLTE1OC44OTA2NjcgMjUuODEzMzM0LTU5Ljg4MjY2NyAwLTExNy43Mzg2NjctOS4zODY2NjctMTU4LjYzNDY2Ni0yNS43NDkzMzQtMzMuMDY2NjY3LTEzLjI0OC00OC43MDQtMjguNjI5MzMzLTQ5LjgxMzMzNC0zOC4zMzZ2LTU2LjQyNjY2NmgtMC4wNjR6IG0xMC4wMjY2NjctODQuODY0YzkuMzg2NjY3LTguNTEyIDI0LjA2NC0xNi43MjUzMzMgNDIuNDUzMzMzLTIzLjgwOCA0MS4zMDEzMzMtMTUuODUwNjY3IDk2Ljc0NjY2Ny0yNC41MzMzMzMgMTU2LjAzMi0yNC41MzMzMzRzMTE0LjczMDY2NyA4LjY4MjY2NyAxNTYuMDEwNjY3IDI0LjUzMzMzNGMxOC4zODkzMzMgNy4wMTg2NjcgMzMuMDY2NjY3IDE1LjIzMiA0Mi40NTMzMzMgMjMuODA4IDMuNzk3MzMzIDMuNDc3MzMzIDEwLjE3NiAxMC4xNTQ2NjcgMTAuMzA0IDE2LjQyNjY2NnYwLjM0MTMzNGMtMC4xMjggOS42NDI2NjctMTUuNjM3MzMzIDI1LjQ5MzMzMy00OS44OTg2NjYgMzkuMTI1MzMzLTQxLjAyNCAxNi4zODQtOTguOTQ0IDI1Ljc0OTMzMy0xNTguODY5MzM0IDI1Ljc0OTMzMy01OS45NDY2NjcgMC0xMTcuODAyNjY3LTkuMzY1MzMzLTE1OC43NjI2NjYtMjUuNi0zMy43MDY2NjctMTMuMzc2LTQ3Ljc0NC0yOC4wMzItNDkuNzQ5MzM0LTM2Ljk5MnYtMS44MTMzMzNIMzI0LjI2NjY2N3YtMC41OTczMzNjMC02LjI5MzMzMyA2LjQ2NC0xMy4wOTg2NjcgMTAuMzA0LTE2LjY0eiBtLTEwLjAyNjY2NyAyMDguMjk4NjY2YzkuNTc4NjY3IDUuODI0IDIwLjU0NCAxMS4yNDI2NjcgMzIuNzg5MzM0IDE2LjE5MiA0Ni44MjY2NjcgMTguNzMwNjY3IDEwOS4yNDggMjkuMDEzMzMzIDE3NS43MjI2NjYgMjkuMDEzMzM0IDY2LjUxNzMzMyAwIDEyOC45Mzg2NjctMTAuMjgyNjY3IDE3NS44OTMzMzQtMjkuMDEzMzM0IDEyLjM5NDY2Ny00Ljk0OTMzMyAyMy40ODgtMTAuNDMyIDMzLjEzMDY2Ni0xNi4zMnY1OC4xMTJjLTIuMDA1MzMzIDguOTYtMTYuMTcwNjY3IDIzLjYxNi01MC4wOTA2NjYgMzcuMDU2LTQxLjA4OCAxNi4yNTYtOTguOTg2NjY3IDI1LjYtMTU4LjkzMzMzNCAyNS42LTU5LjczMzMzMyAwLTExNy40NjEzMzMtOS4zNDQtMTU4LjI5MzMzMy0yNS42LTM0LjY0NTMzMy0xMy43ODEzMzMtNTAuMTU0NjY3LTI5LjgyNC01MC4xNTQ2NjctMzkuNTk0NjY2di01NS40NDUzMzRoLTAuMDY0eiBtNDA3LjI1MzMzNCAxOTUuOTQ2NjY3Yy05LjM4NjY2NyA4LjQ5MDY2Ny0yNC4wODUzMzMgMTYuNzI1MzMzLTQyLjQ1MzMzNCAyMy44MDgtNDEuMzAxMzMzIDE1Ljg1MDY2Ny05Ni43NDY2NjcgMjQuNTMzMzMzLTE1Ni4wMzIgMjQuNTMzMzMzLTU5LjMwNjY2NyAwLTExNC43MzA2NjctOC42ODI2NjctMTU2LjAxMDY2Ni0yNC41MzMzMzMtMTguMzg5MzMzLTcuMDE4NjY3LTMzLjA2NjY2Ny0xNS4yMzItNDIuNDUzMzM0LTIzLjgwOC0zLjg0LTMuNDc3MzMzLTEwLjMwNC0xMC4yODI2NjctMTAuMzA0LTE2LjY0di01NS43MDEzMzNjOS42NDI2NjcgNS44NjY2NjcgMjAuNzM2IDExLjM0OTMzMyAzMy4xMzA2NjcgMTYuMjk4NjY2IDQ2Ljc2MjY2NyAxOC42NjY2NjcgMTA5LjAzNDY2NyAyOC45MDY2NjcgMTc1LjMxNzMzMyAyOC45MDY2NjcgNjYuNDUzMzMzIDAgMTI4LjkzODY2Ny0xMC4yNCAxNzUuODkzMzM0LTI4LjgyMTMzM2EyMjcuOTQ2NjY3IDIyNy45NDY2NjcgMCAwIDAgMzMuMTk0NjY2LTE2LjIxMzMzNHY1NS41OTQ2NjdjMCA2LjI5MzMzMy02LjQ0MjY2NyAxMy4wOTg2NjctMTAuMzA0IDE2LjU3NnoiLz48cGF0aCBmaWxsPSIjRDc5QjAwIiBkPSJNNzEyLjQ2OTMzMyA0NzYuOGMxLjEwOTMzMyA3LjAxODY2NyA1Ljg2NjY2NyAxMi44ODUzMzMgMTIuNDM3MzM0IDE1LjQyNGExOS41MiAxOS41MiAwIDAgMCAxOS40MzQ2NjYtMy4yIDIwLjAzMiAyMC4wMzIgMCAwIDAgNi45OTczMzQtMTguNjAyNjY3IDE5LjcxMiAxOS43MTIgMCAwIDAtMjIuNTkyLTE2LjQ2OTMzMyAxOS44ODI2NjcgMTkuODgyNjY3IDAgMCAwLTE2LjI3NzMzNCAyMi44MjY2Njd6TTcxMi4yMTMzMzMgNTkzLjA2NjY2N2MwIDEwLjk4NjY2NyA4LjgxMDY2NyAxOS45MDQgMTkuNjkwNjY3IDE5LjkwNHMxOS42OTA2NjctOC45MTczMzMgMTkuNjkwNjY3LTE5LjkwNGExOS43OTczMzMgMTkuNzk3MzMzIDAgMCAwLTE5LjY5MDY2Ny0xOS45MDQgMTkuNzk3MzMzIDE5Ljc5NzMzMyAwIDAgMC0xOS42OTA2NjcgMTkuOTA0ek03MTIuMjEzMzMzIDcxMi41MzMzMzNjMCAxMC45ODY2NjcgOC44MTA2NjcgMTkuOTA0IDE5LjY5MDY2NyAxOS45MDRzMTkuNjkwNjY3LTguOTE3MzMzIDE5LjY5MDY2Ny0xOS45MDRhMTkuNzk3MzMzIDE5Ljc5NzMzMyAwIDAgMC0xOS42OTA2NjctMTkuOTA0IDE5Ljc5NzMzMyAxOS43OTczMzMgMCAwIDAtMTkuNjkwNjY3IDE5LjkwNHoiLz48L3N2Zz4=;" vertex="1" parent="1">
          <mxGeometry x="315.27" y="169.03" width="26.47" height="30.97" as="geometry" />
        </mxCell>
        <mxCell id="gAO9YN55WAYrPnItWNkm-133" value="" style="shape=image;verticalLabelPosition=bottom;labelBackgroundColor=default;verticalAlign=top;aspect=fixed;imageAspect=0;editableCssRules=.*;image=data:image/svg+xml,PHN2ZyB4bWxuczp4bGluaz0iaHR0cDovL3d3dy53My5vcmcvMTk5OS94bGluayIgeG1sbnM9Imh0dHA6Ly93d3cudzMub3JnLzIwMDAvc3ZnIiBoZWlnaHQ9IjExNi42NjY2NjI2OTMwMjM2OCIgd2lkdGg9IjEwMCIgdmVyc2lvbj0iMS4xIiB2aWV3Qm94PSIyNzcuMzMzMzEyOTg4MjgxMjUgMjM0LjY2NjY3MTc1MjkyOTcgNTEyIDU5Ny4zMzMzMTI5ODgyODEyIiBjbGFzcz0iaWNvbiI+PHBhdGggZmlsbD0iI0Q3OUIwMCIgZD0iTTc4OS4zMzMzMzMgNTk1LjEzNmMwLTEuODc3MzMzLTAuMDY0LTMuODQtMC4yNTYtNS43NlYzNDguNDE2aC0wLjI1NnYtMC41OTczMzNjMC0xMy4yMjY2NjctNC41NjUzMzMtMzMuMTA5MzMzLTI2LjE1NDY2Ni01Mi42OTMzMzQtMTMuODQ1MzMzLTEyLjU4NjY2Ny0zMy4wNjY2NjctMjMuNjE2LTU3LjE1Mi0zMi44NTMzMzNDNjU5LjA5MzMzMyAyNDQuNTIyNjY3IDU5Ny44NDUzMzMgMjM0LjY2NjY2NyA1MzMuMDc3MzMzIDIzNC42NjY2NjdjLTY0Ljc2OCAwLTEyNi4wMTYgOS44MTMzMzMtMTcyLjQ1ODY2NiAyNy42MjY2NjYtMjQgOS4yMTYtNDMuMjQyNjY3IDIwLjI2NjY2Ny01Ny4xMzA2NjcgMzIuODMyLTIxLjY1MzMzMyAxOS41ODQtMjYuMTU0NjY3IDM5LjQ2NjY2Ny0yNi4xNTQ2NjcgNTIuNjkzMzM0IDAgMS45NDEzMzMgMC4wNjQgMy44MTg2NjcgMC4yNTYgNS43NnYxMTQuODhjLTAuMDY0IDAuOTM4NjY3LTAuMDY0IDEuODc3MzMzLTAuMDY0IDIuODE2IDAgMC45Mzg2NjcgMCAxLjkyIDAuMDY0IDIuODE2djI0NS4wMTMzMzNjMC4wNjQgMTMuMjQ4IDQuNjkzMzMzIDMyLjk4MTMzMyAyNi4xNTQ2NjcgNTIuNDM3MzMzIDEzLjgyNCAxMi41ODY2NjcgMzMuMDY2NjY3IDIzLjYxNiA1Ny4xMzA2NjcgMzIuODUzMzM0QzQwNy4zMTczMzMgODIyLjE0NCA0NjguNTY1MzMzIDgzMiA1MzMuMzMzMzMzIDgzMmM2NC43NjggMCAxMjYuMDE2LTkuODEzMzMzIDE3Mi40NTg2NjctMjcuNjI2NjY3IDI0LTkuMjE2IDQzLjI0MjY2Ny0yMC4yNjY2NjcgNTcuMTMwNjY3LTMyLjgzMiAyMS40NjEzMzMtMTkuNDU2IDI2LjA5MDY2Ny0zOS4xODkzMzMgMjYuMTU0NjY2LTUyLjQzNzMzM3YtMTE4LjIyOTMzM2MwLjE5Mi0xLjkyIDAuMjU2LTMuODgyNjY3IDAuMjU2LTUuNzZ6IG0tNDY0Ljc2OC0xNzkuMDkzMzMzYzkuMTMwNjY3IDUuNTQ2NjY3IDE5Ljk0NjY2NyAxMC45NjUzMzMgMzIuNzg5MzM0IDE2LjA0MjY2NiA0Ni44MjY2NjcgMTguNTgxMzMzIDEwOS4xODQgMjguODg1MzMzIDE3NS43MjI2NjYgMjguODg1MzM0IDY2LjUxNzMzMyAwIDEyOS4wMDI2NjctMTAuMzA0IDE3NS44MjkzMzQtMjguOTQ5MzM0YTIxMy40NCAyMTMuNDQgMCAwIDAgMzMuMTk0NjY2LTE2LjM4NHY1NS42MzczMzRjMCA5LjY4NTMzMy0xNS41MDkzMzMgMjUuNjg1MzMzLTUwLjEzMzMzMyAzOS40NjY2NjYtNDEuMDQ1MzMzIDE2LjQyNjY2Ny05OC45NjUzMzMgMjUuODEzMzMzLTE1OC44OTA2NjcgMjUuODEzMzM0LTU5Ljg4MjY2NyAwLTExNy43Mzg2NjctOS4zODY2NjctMTU4LjYzNDY2Ni0yNS43NDkzMzQtMzMuMDY2NjY3LTEzLjI0OC00OC43MDQtMjguNjI5MzMzLTQ5LjgxMzMzNC0zOC4zMzZ2LTU2LjQyNjY2NmgtMC4wNjR6IG0xMC4wMjY2NjctODQuODY0YzkuMzg2NjY3LTguNTEyIDI0LjA2NC0xNi43MjUzMzMgNDIuNDUzMzMzLTIzLjgwOCA0MS4zMDEzMzMtMTUuODUwNjY3IDk2Ljc0NjY2Ny0yNC41MzMzMzMgMTU2LjAzMi0yNC41MzMzMzRzMTE0LjczMDY2NyA4LjY4MjY2NyAxNTYuMDEwNjY3IDI0LjUzMzMzNGMxOC4zODkzMzMgNy4wMTg2NjcgMzMuMDY2NjY3IDE1LjIzMiA0Mi40NTMzMzMgMjMuODA4IDMuNzk3MzMzIDMuNDc3MzMzIDEwLjE3NiAxMC4xNTQ2NjcgMTAuMzA0IDE2LjQyNjY2NnYwLjM0MTMzNGMtMC4xMjggOS42NDI2NjctMTUuNjM3MzMzIDI1LjQ5MzMzMy00OS44OTg2NjYgMzkuMTI1MzMzLTQxLjAyNCAxNi4zODQtOTguOTQ0IDI1Ljc0OTMzMy0xNTguODY5MzM0IDI1Ljc0OTMzMy01OS45NDY2NjcgMC0xMTcuODAyNjY3LTkuMzY1MzMzLTE1OC43NjI2NjYtMjUuNi0zMy43MDY2NjctMTMuMzc2LTQ3Ljc0NC0yOC4wMzItNDkuNzQ5MzM0LTM2Ljk5MnYtMS44MTMzMzNIMzI0LjI2NjY2N3YtMC41OTczMzNjMC02LjI5MzMzMyA2LjQ2NC0xMy4wOTg2NjcgMTAuMzA0LTE2LjY0eiBtLTEwLjAyNjY2NyAyMDguMjk4NjY2YzkuNTc4NjY3IDUuODI0IDIwLjU0NCAxMS4yNDI2NjcgMzIuNzg5MzM0IDE2LjE5MiA0Ni44MjY2NjcgMTguNzMwNjY3IDEwOS4yNDggMjkuMDEzMzMzIDE3NS43MjI2NjYgMjkuMDEzMzM0IDY2LjUxNzMzMyAwIDEyOC45Mzg2NjctMTAuMjgyNjY3IDE3NS44OTMzMzQtMjkuMDEzMzM0IDEyLjM5NDY2Ny00Ljk0OTMzMyAyMy40ODgtMTAuNDMyIDMzLjEzMDY2Ni0xNi4zMnY1OC4xMTJjLTIuMDA1MzMzIDguOTYtMTYuMTcwNjY3IDIzLjYxNi01MC4wOTA2NjYgMzcuMDU2LTQxLjA4OCAxNi4yNTYtOTguOTg2NjY3IDI1LjYtMTU4LjkzMzMzNCAyNS42LTU5LjczMzMzMyAwLTExNy40NjEzMzMtOS4zNDQtMTU4LjI5MzMzMy0yNS42LTM0LjY0NTMzMy0xMy43ODEzMzMtNTAuMTU0NjY3LTI5LjgyNC01MC4xNTQ2NjctMzkuNTk0NjY2di01NS40NDUzMzRoLTAuMDY0eiBtNDA3LjI1MzMzNCAxOTUuOTQ2NjY3Yy05LjM4NjY2NyA4LjQ5MDY2Ny0yNC4wODUzMzMgMTYuNzI1MzMzLTQyLjQ1MzMzNCAyMy44MDgtNDEuMzAxMzMzIDE1Ljg1MDY2Ny05Ni43NDY2NjcgMjQuNTMzMzMzLTE1Ni4wMzIgMjQuNTMzMzMzLTU5LjMwNjY2NyAwLTExNC43MzA2NjctOC42ODI2NjctMTU2LjAxMDY2Ni0yNC41MzMzMzMtMTguMzg5MzMzLTcuMDE4NjY3LTMzLjA2NjY2Ny0xNS4yMzItNDIuNDUzMzM0LTIzLjgwOC0zLjg0LTMuNDc3MzMzLTEwLjMwNC0xMC4yODI2NjctMTAuMzA0LTE2LjY0di01NS43MDEzMzNjOS42NDI2NjcgNS44NjY2NjcgMjAuNzM2IDExLjM0OTMzMyAzMy4xMzA2NjcgMTYuMjk4NjY2IDQ2Ljc2MjY2NyAxOC42NjY2NjcgMTA5LjAzNDY2NyAyOC45MDY2NjcgMTc1LjMxNzMzMyAyOC45MDY2NjcgNjYuNDUzMzMzIDAgMTI4LjkzODY2Ny0xMC4yNCAxNzUuODkzMzM0LTI4LjgyMTMzM2EyMjcuOTQ2NjY3IDIyNy45NDY2NjcgMCAwIDAgMzMuMTk0NjY2LTE2LjIxMzMzNHY1NS41OTQ2NjdjMCA2LjI5MzMzMy02LjQ0MjY2NyAxMy4wOTg2NjctMTAuMzA0IDE2LjU3NnoiLz48cGF0aCBmaWxsPSIjRDc5QjAwIiBkPSJNNzEyLjQ2OTMzMyA0NzYuOGMxLjEwOTMzMyA3LjAxODY2NyA1Ljg2NjY2NyAxMi44ODUzMzMgMTIuNDM3MzM0IDE1LjQyNGExOS41MiAxOS41MiAwIDAgMCAxOS40MzQ2NjYtMy4yIDIwLjAzMiAyMC4wMzIgMCAwIDAgNi45OTczMzQtMTguNjAyNjY3IDE5LjcxMiAxOS43MTIgMCAwIDAtMjIuNTkyLTE2LjQ2OTMzMyAxOS44ODI2NjcgMTkuODgyNjY3IDAgMCAwLTE2LjI3NzMzNCAyMi44MjY2Njd6TTcxMi4yMTMzMzMgNTkzLjA2NjY2N2MwIDEwLjk4NjY2NyA4LjgxMDY2NyAxOS45MDQgMTkuNjkwNjY3IDE5LjkwNHMxOS42OTA2NjctOC45MTczMzMgMTkuNjkwNjY3LTE5LjkwNGExOS43OTczMzMgMTkuNzk3MzMzIDAgMCAwLTE5LjY5MDY2Ny0xOS45MDQgMTkuNzk3MzMzIDE5Ljc5NzMzMyAwIDAgMC0xOS42OTA2NjcgMTkuOTA0ek03MTIuMjEzMzMzIDcxMi41MzMzMzNjMCAxMC45ODY2NjcgOC44MTA2NjcgMTkuOTA0IDE5LjY5MDY2NyAxOS45MDRzMTkuNjkwNjY3LTguOTE3MzMzIDE5LjY5MDY2Ny0xOS45MDRhMTkuNzk3MzMzIDE5Ljc5NzMzMyAwIDAgMC0xOS42OTA2NjctMTkuOTA0IDE5Ljc5NzMzMyAxOS43OTczMzMgMCAwIDAtMTkuNjkwNjY3IDE5LjkwNHoiLz48L3N2Zz4=;" vertex="1" parent="1">
          <mxGeometry x="315.27" y="247.55999999999995" width="26.47" height="30.97" as="geometry" />
        </mxCell>
        <mxCell id="gAO9YN55WAYrPnItWNkm-134" value="dev&lt;span style=&quot;background-color: transparent; color: light-dark(rgb(215, 155, 0), rgb(153, 101, 0));&quot;&gt;&amp;nbsp;&lt;/span&gt;&lt;span style=&quot;background-color: transparent; color: light-dark(rgb(215, 155, 0), rgb(153, 101, 0));&quot;&gt;dataset&lt;/span&gt;" style="text;html=1;align=center;verticalAlign=middle;whiteSpace=wrap;rounded=0;fontSize=10;fontFamily=Comic Sans MS;fontColor=#D79B00;fontStyle=1;" vertex="1" parent="1">
          <mxGeometry x="292.5" y="278.53" width="72.01" height="9.15" as="geometry" />
        </mxCell>
        <mxCell id="gAO9YN55WAYrPnItWNkm-135" value="" style="shape=image;verticalLabelPosition=bottom;labelBackgroundColor=default;verticalAlign=top;aspect=fixed;imageAspect=0;editableCssRules=.*;image=data:image/svg+xml,PHN2ZyB4bWxuczp4bGluaz0iaHR0cDovL3d3dy53My5vcmcvMTk5OS94bGluayIgeG1sbnM9Imh0dHA6Ly93d3cudzMub3JnLzIwMDAvc3ZnIiBoZWlnaHQ9IjExNi42NjY2NjI2OTMwMjM2OCIgd2lkdGg9IjEwMCIgdmVyc2lvbj0iMS4xIiB2aWV3Qm94PSIyNzcuMzMzMzEyOTg4MjgxMjUgMjM0LjY2NjY3MTc1MjkyOTcgNTEyIDU5Ny4zMzMzMTI5ODgyODEyIiBjbGFzcz0iaWNvbiI+PHBhdGggZmlsbD0iI0Q3OUIwMCIgZD0iTTc4OS4zMzMzMzMgNTk1LjEzNmMwLTEuODc3MzMzLTAuMDY0LTMuODQtMC4yNTYtNS43NlYzNDguNDE2aC0wLjI1NnYtMC41OTczMzNjMC0xMy4yMjY2NjctNC41NjUzMzMtMzMuMTA5MzMzLTI2LjE1NDY2Ni01Mi42OTMzMzQtMTMuODQ1MzMzLTEyLjU4NjY2Ny0zMy4wNjY2NjctMjMuNjE2LTU3LjE1Mi0zMi44NTMzMzNDNjU5LjA5MzMzMyAyNDQuNTIyNjY3IDU5Ny44NDUzMzMgMjM0LjY2NjY2NyA1MzMuMDc3MzMzIDIzNC42NjY2NjdjLTY0Ljc2OCAwLTEyNi4wMTYgOS44MTMzMzMtMTcyLjQ1ODY2NiAyNy42MjY2NjYtMjQgOS4yMTYtNDMuMjQyNjY3IDIwLjI2NjY2Ny01Ny4xMzA2NjcgMzIuODMyLTIxLjY1MzMzMyAxOS41ODQtMjYuMTU0NjY3IDM5LjQ2NjY2Ny0yNi4xNTQ2NjcgNTIuNjkzMzM0IDAgMS45NDEzMzMgMC4wNjQgMy44MTg2NjcgMC4yNTYgNS43NnYxMTQuODhjLTAuMDY0IDAuOTM4NjY3LTAuMDY0IDEuODc3MzMzLTAuMDY0IDIuODE2IDAgMC45Mzg2NjcgMCAxLjkyIDAuMDY0IDIuODE2djI0NS4wMTMzMzNjMC4wNjQgMTMuMjQ4IDQuNjkzMzMzIDMyLjk4MTMzMyAyNi4xNTQ2NjcgNTIuNDM3MzMzIDEzLjgyNCAxMi41ODY2NjcgMzMuMDY2NjY3IDIzLjYxNiA1Ny4xMzA2NjcgMzIuODUzMzM0QzQwNy4zMTczMzMgODIyLjE0NCA0NjguNTY1MzMzIDgzMiA1MzMuMzMzMzMzIDgzMmM2NC43NjggMCAxMjYuMDE2LTkuODEzMzMzIDE3Mi40NTg2NjctMjcuNjI2NjY3IDI0LTkuMjE2IDQzLjI0MjY2Ny0yMC4yNjY2NjcgNTcuMTMwNjY3LTMyLjgzMiAyMS40NjEzMzMtMTkuNDU2IDI2LjA5MDY2Ny0zOS4xODkzMzMgMjYuMTU0NjY2LTUyLjQzNzMzM3YtMTE4LjIyOTMzM2MwLjE5Mi0xLjkyIDAuMjU2LTMuODgyNjY3IDAuMjU2LTUuNzZ6IG0tNDY0Ljc2OC0xNzkuMDkzMzMzYzkuMTMwNjY3IDUuNTQ2NjY3IDE5Ljk0NjY2NyAxMC45NjUzMzMgMzIuNzg5MzM0IDE2LjA0MjY2NiA0Ni44MjY2NjcgMTguNTgxMzMzIDEwOS4xODQgMjguODg1MzMzIDE3NS43MjI2NjYgMjguODg1MzM0IDY2LjUxNzMzMyAwIDEyOS4wMDI2NjctMTAuMzA0IDE3NS44MjkzMzQtMjguOTQ5MzM0YTIxMy40NCAyMTMuNDQgMCAwIDAgMzMuMTk0NjY2LTE2LjM4NHY1NS42MzczMzRjMCA5LjY4NTMzMy0xNS41MDkzMzMgMjUuNjg1MzMzLTUwLjEzMzMzMyAzOS40NjY2NjYtNDEuMDQ1MzMzIDE2LjQyNjY2Ny05OC45NjUzMzMgMjUuODEzMzMzLTE1OC44OTA2NjcgMjUuODEzMzM0LTU5Ljg4MjY2NyAwLTExNy43Mzg2NjctOS4zODY2NjctMTU4LjYzNDY2Ni0yNS43NDkzMzQtMzMuMDY2NjY3LTEzLjI0OC00OC43MDQtMjguNjI5MzMzLTQ5LjgxMzMzNC0zOC4zMzZ2LTU2LjQyNjY2NmgtMC4wNjR6IG0xMC4wMjY2NjctODQuODY0YzkuMzg2NjY3LTguNTEyIDI0LjA2NC0xNi43MjUzMzMgNDIuNDUzMzMzLTIzLjgwOCA0MS4zMDEzMzMtMTUuODUwNjY3IDk2Ljc0NjY2Ny0yNC41MzMzMzMgMTU2LjAzMi0yNC41MzMzMzRzMTE0LjczMDY2NyA4LjY4MjY2NyAxNTYuMDEwNjY3IDI0LjUzMzMzNGMxOC4zODkzMzMgNy4wMTg2NjcgMzMuMDY2NjY3IDE1LjIzMiA0Mi40NTMzMzMgMjMuODA4IDMuNzk3MzMzIDMuNDc3MzMzIDEwLjE3NiAxMC4xNTQ2NjcgMTAuMzA0IDE2LjQyNjY2NnYwLjM0MTMzNGMtMC4xMjggOS42NDI2NjctMTUuNjM3MzMzIDI1LjQ5MzMzMy00OS44OTg2NjYgMzkuMTI1MzMzLTQxLjAyNCAxNi4zODQtOTguOTQ0IDI1Ljc0OTMzMy0xNTguODY5MzM0IDI1Ljc0OTMzMy01OS45NDY2NjcgMC0xMTcuODAyNjY3LTkuMzY1MzMzLTE1OC43NjI2NjYtMjUuNi0zMy43MDY2NjctMTMuMzc2LTQ3Ljc0NC0yOC4wMzItNDkuNzQ5MzM0LTM2Ljk5MnYtMS44MTMzMzNIMzI0LjI2NjY2N3YtMC41OTczMzNjMC02LjI5MzMzMyA2LjQ2NC0xMy4wOTg2NjcgMTAuMzA0LTE2LjY0eiBtLTEwLjAyNjY2NyAyMDguMjk4NjY2YzkuNTc4NjY3IDUuODI0IDIwLjU0NCAxMS4yNDI2NjcgMzIuNzg5MzM0IDE2LjE5MiA0Ni44MjY2NjcgMTguNzMwNjY3IDEwOS4yNDggMjkuMDEzMzMzIDE3NS43MjI2NjYgMjkuMDEzMzM0IDY2LjUxNzMzMyAwIDEyOC45Mzg2NjctMTAuMjgyNjY3IDE3NS44OTMzMzQtMjkuMDEzMzM0IDEyLjM5NDY2Ny00Ljk0OTMzMyAyMy40ODgtMTAuNDMyIDMzLjEzMDY2Ni0xNi4zMnY1OC4xMTJjLTIuMDA1MzMzIDguOTYtMTYuMTcwNjY3IDIzLjYxNi01MC4wOTA2NjYgMzcuMDU2LTQxLjA4OCAxNi4yNTYtOTguOTg2NjY3IDI1LjYtMTU4LjkzMzMzNCAyNS42LTU5LjczMzMzMyAwLTExNy40NjEzMzMtOS4zNDQtMTU4LjI5MzMzMy0yNS42LTM0LjY0NTMzMy0xMy43ODEzMzMtNTAuMTU0NjY3LTI5LjgyNC01MC4xNTQ2NjctMzkuNTk0NjY2di01NS40NDUzMzRoLTAuMDY0eiBtNDA3LjI1MzMzNCAxOTUuOTQ2NjY3Yy05LjM4NjY2NyA4LjQ5MDY2Ny0yNC4wODUzMzMgMTYuNzI1MzMzLTQyLjQ1MzMzNCAyMy44MDgtNDEuMzAxMzMzIDE1Ljg1MDY2Ny05Ni43NDY2NjcgMjQuNTMzMzMzLTE1Ni4wMzIgMjQuNTMzMzMzLTU5LjMwNjY2NyAwLTExNC43MzA2NjctOC42ODI2NjctMTU2LjAxMDY2Ni0yNC41MzMzMzMtMTguMzg5MzMzLTcuMDE4NjY3LTMzLjA2NjY2Ny0xNS4yMzItNDIuNDUzMzM0LTIzLjgwOC0zLjg0LTMuNDc3MzMzLTEwLjMwNC0xMC4yODI2NjctMTAuMzA0LTE2LjY0di01NS43MDEzMzNjOS42NDI2NjcgNS44NjY2NjcgMjAuNzM2IDExLjM0OTMzMyAzMy4xMzA2NjcgMTYuMjk4NjY2IDQ2Ljc2MjY2NyAxOC42NjY2NjcgMTA5LjAzNDY2NyAyOC45MDY2NjcgMTc1LjMxNzMzMyAyOC45MDY2NjcgNjYuNDUzMzMzIDAgMTI4LjkzODY2Ny0xMC4yNCAxNzUuODkzMzM0LTI4LjgyMTMzM2EyMjcuOTQ2NjY3IDIyNy45NDY2NjcgMCAwIDAgMzMuMTk0NjY2LTE2LjIxMzMzNHY1NS41OTQ2NjdjMCA2LjI5MzMzMy02LjQ0MjY2NyAxMy4wOTg2NjctMTAuMzA0IDE2LjU3NnoiLz48cGF0aCBmaWxsPSIjRDc5QjAwIiBkPSJNNzEyLjQ2OTMzMyA0NzYuOGMxLjEwOTMzMyA3LjAxODY2NyA1Ljg2NjY2NyAxMi44ODUzMzMgMTIuNDM3MzM0IDE1LjQyNGExOS41MiAxOS41MiAwIDAgMCAxOS40MzQ2NjYtMy4yIDIwLjAzMiAyMC4wMzIgMCAwIDAgNi45OTczMzQtMTguNjAyNjY3IDE5LjcxMiAxOS43MTIgMCAwIDAtMjIuNTkyLTE2LjQ2OTMzMyAxOS44ODI2NjcgMTkuODgyNjY3IDAgMCAwLTE2LjI3NzMzNCAyMi44MjY2Njd6TTcxMi4yMTMzMzMgNTkzLjA2NjY2N2MwIDEwLjk4NjY2NyA4LjgxMDY2NyAxOS45MDQgMTkuNjkwNjY3IDE5LjkwNHMxOS42OTA2NjctOC45MTczMzMgMTkuNjkwNjY3LTE5LjkwNGExOS43OTczMzMgMTkuNzk3MzMzIDAgMCAwLTE5LjY5MDY2Ny0xOS45MDQgMTkuNzk3MzMzIDE5Ljc5NzMzMyAwIDAgMC0xOS42OTA2NjcgMTkuOTA0ek03MTIuMjEzMzMzIDcxMi41MzMzMzNjMCAxMC45ODY2NjcgOC44MTA2NjcgMTkuOTA0IDE5LjY5MDY2NyAxOS45MDRzMTkuNjkwNjY3LTguOTE3MzMzIDE5LjY5MDY2Ny0xOS45MDRhMTkuNzk3MzMzIDE5Ljc5NzMzMyAwIDAgMC0xOS42OTA2NjctMTkuOTA0IDE5Ljc5NzMzMyAxOS43OTczMzMgMCAwIDAtMTkuNjkwNjY3IDE5LjkwNHoiLz48L3N2Zz4=;" vertex="1" parent="1">
          <mxGeometry x="55" y="175.57999999999998" width="26.47" height="30.97" as="geometry" />
        </mxCell>
        <mxCell id="gAO9YN55WAYrPnItWNkm-148" value="" style="endArrow=classic;html=1;rounded=0;fillColor=#ffe6cc;strokeColor=#d79b00;sketch=1;curveFitting=1;jiggle=2;strokeWidth=1.5;exitX=1;exitY=0.5;exitDx=0;exitDy=0;opacity=70;" edge="1" parent="1">
          <mxGeometry width="50" height="50" relative="1" as="geometry">
            <mxPoint x="286.99" y="266.01" as="sourcePoint" />
            <mxPoint x="315.52" y="266" as="targetPoint" />
          </mxGeometry>
        </mxCell>
        <mxCell id="gAO9YN55WAYrPnItWNkm-149" value="infer" style="text;html=1;align=center;verticalAlign=middle;whiteSpace=wrap;rounded=0;fontFamily=Comic Sans MS;fontSize=10;fontColor=light-dark(#D79B00,#BFA761);fontStyle=1;opacity=70;textOpacity=80;" vertex="1" parent="1">
          <mxGeometry x="279.5" y="251.14" width="43.77" height="8.18" as="geometry" />
        </mxCell>
        <mxCell id="gAO9YN55WAYrPnItWNkm-153" value="" style="endArrow=classic;html=1;rounded=0;fillColor=#ffe6cc;strokeColor=#d79b00;sketch=1;curveFitting=1;jiggle=2;strokeWidth=1.5;exitX=1;exitY=0.5;exitDx=0;exitDy=0;opacity=70;shape=flexArrow;endWidth=9.428571428571429;endSize=3.4114285714285715;entryX=-0.02;entryY=0.543;entryDx=0;entryDy=0;entryPerimeter=0;" edge="1" parent="1" target="gAO9YN55WAYrPnItWNkm-152">
          <mxGeometry width="50" height="50" relative="1" as="geometry">
            <mxPoint x="398.47" y="223.92" as="sourcePoint" />
            <mxPoint x="427" y="223.91" as="targetPoint" />
          </mxGeometry>
        </mxCell>
      </root>
    </mxGraphModel>
  </diagram>
</mxfile>
